<?xml version="1.0" encoding="UTF-8"?>
<svg version="1.1" xmlns="http://www.w3.org/2000/svg" width="320" height="320">
<path d="M0 0 C105.6 0 211.2 0 320 0 C320 105.6 320 211.2 320 320 C214.4 320 108.8 320 0 320 C0 214.4 0 108.8 0 0 Z " fill="#FEFEFE" transform="translate(0,0)"/>
<path d="M0 0 C5.4620268 4.62803991 8.23485823 9.9475527 11.00390625 16.4140625 C11.34615234 17.17847656 11.68839844 17.94289062 12.04101562 18.73046875 C17.64892849 31.55788887 19.01969341 46.00560878 14.81640625 59.5390625 C8.41782786 75.61945484 -2.32674388 88.70240934 -18.28125 95.9453125 C-33.4657275 101.66759204 -52.17119291 101.91082457 -67.18359375 95.5390625 C-79.48047624 89.81569868 -89.2240664 81.35117483 -94.18359375 68.5390625 C-94.54582031 67.63929688 -94.90804687 66.73953125 -95.28125 65.8125 C-98.45135146 54.31230511 -96.97630582 41.85254193 -91.18359375 31.5390625 C-90.73757812 30.68183594 -90.2915625 29.82460937 -89.83203125 28.94140625 C-80.5330455 12.13569737 -64.63944799 0.02277663 -46.41796875 -5.62890625 C-30.12673156 -9.32043127 -14.48132645 -9.00628356 0 0 Z " fill="#FE7C2B" transform="translate(193.18359375,116.4609375)"/>
<path d="M0 0 C1.16144531 0.00902344 2.32289063 0.01804687 3.51953125 0.02734375 C4.39996094 0.03894531 5.28039062 0.05054687 6.1875 0.0625 C6.53167969 0.97902344 6.53167969 0.97902344 6.8828125 1.9140625 C8.56525317 4.68454863 10.09970917 5.19787535 13.0625 6.4375 C20.74613473 10.10268209 22.61711531 15.68751511 25.35546875 23.37890625 C29.30602711 36.12084799 27.4280657 49.30107082 22 61.3125 C17.05825975 70.48791026 10.14008036 75.63071923 0.296875 78.640625 C-11.11424213 80.92284843 -22.10553536 78.34335796 -31.75 72.0625 C-33.11331944 71.07501457 -34.46879428 70.07651297 -35.8125 69.0625 C-36.72 68.44375 -37.6275 67.825 -38.5625 67.1875 C-44.96139845 61.14409591 -47.77137076 53.64099482 -48.25 44.9375 C-47.95570364 32.30006808 -41.05042845 21.22365395 -32.2734375 12.5546875 C-22.83348852 4.31173493 -12.54139824 -0.12668079 0 0 Z " fill="#FBFAF9" transform="translate(163.8125,121.9375)"/>
<path d="M0 0 C3.1092368 0.11265351 3.9374318 0.29435585 6.5 2.25 C12.09826574 13.23121357 11.60205535 28.59671272 12.94775391 40.72021484 C13.26115385 43.53035179 13.58316739 46.33939971 13.90625 49.1484375 C13.99902222 50.0068222 14.09179443 50.86520691 14.18737793 51.74960327 C14.68134955 56.00257973 15.4305097 59.47495791 17.125 63.4375 C16.98804158 67.34081505 16.63145943 69.68718974 14.4375 72.9375 C12.125 74.4375 12.125 74.4375 9.125 74.5 C5.27112142 73.13508467 4.35424849 71.86745263 2.125 68.4375 C0.98216176 65.28808556 0.26223839 62.08563954 -0.4375 58.8125 C-0.64656982 57.85899658 -0.85563965 56.90549316 -1.07104492 55.9230957 C-4.62352107 38.85776321 -7.64731192 19.90743176 -5.875 2.4375 C-3.875 0.4375 -3.875 0.4375 0 0 Z " fill="#FE7E2D" transform="translate(141.875,25.5625)"/>
<path d="M0 0 C3.23729548 -0.24958741 5.9036085 -0.00636454 9 1 C15.02387628 7.13052306 18.55834384 15.68275009 22.17993164 23.37548828 C23.05679996 25.23789352 23.9460687 27.09393474 24.83789062 28.94921875 C26.3002058 32.0045797 27.73405736 35.07196787 29.14874268 38.1496582 C29.72422984 39.40057015 30.3035607 40.64971982 30.88641357 41.8972168 C31.74975606 43.75345389 32.59397798 45.61730511 33.43359375 47.484375 C33.92786865 48.56944336 34.42214355 49.65451172 34.93139648 50.77246094 C36.12944785 54.3909757 36.30381245 57.21168587 36 61 C34.4375 63 34.4375 63 32 64 C28.5625 64.1875 28.5625 64.1875 25 63 C21.04632939 58.24836115 18.60045624 52.26489146 16.1875 46.625 C15.85057129 45.85478516 15.51364258 45.08457031 15.16650391 44.29101562 C13.75231381 41.05745718 12.35279667 37.81764459 10.95458984 34.57714844 C9.93352615 32.2156681 8.90655395 29.8569159 7.875 27.5 C7.54588623 26.74638184 7.21677246 25.99276367 6.87768555 25.21630859 C5.01226076 21.0241024 2.97321498 17.12818687 0.5 13.25 C-1.75124158 9.69573001 -2.84017982 7.30592159 -2 3 C-1.34 2.01 -0.68 1.02 0 0 Z " fill="#FE7D2C" transform="translate(192,216)"/>
<path d="M0 0 C2.40832094 3.61248141 2.72360855 4.73874968 2 9 C-1.65757422 14.68041269 -6.97250733 18.71323626 -12.25390625 22.796875 C-15.87795232 25.70436004 -19.26391684 28.83239178 -22.6652832 31.99438477 C-25.51769577 34.64526567 -28.40704554 37.22950433 -31.375 39.75 C-34.51707423 42.46003902 -37.17789222 45.38363108 -39.7734375 48.6171875 C-41 50 -41 50 -43 51 C-46.5 51.1875 -46.5 51.1875 -50 51 C-52 49 -52 49 -52.5625 45.375 C-52.35646735 39.61638746 -48.93724659 36.85320028 -45 33 C-44.00692794 31.97607456 -43.01620632 30.94986635 -42.02734375 29.921875 C-36.25893433 23.97683701 -30.34806699 18.42398386 -23.84765625 13.2734375 C-19.89904384 10.12104734 -16.070866 6.83236523 -12.23828125 3.54052734 C-7.65596351 -0.36883302 -5.99642166 -1.49910542 0 0 Z " fill="#FE7D2B" transform="translate(270,59)"/>
<path d="M0 0 C2.61846604 1.10251202 3.69052839 1.72240459 5.375 4 C7.63221684 17.71827907 3.39768233 31.67477625 0.14013672 44.88818359 C-0.53284083 47.625188 -1.17823951 50.36622299 -1.80859375 53.11328125 C-4.51283476 64.63663346 -4.51283476 64.63663346 -7.625 69 C-10 70.0625 -10 70.0625 -12.625 70 C-15.4375 68.6875 -15.4375 68.6875 -17.625 66 C-19.30943969 58.81208924 -16.61314825 51.39838934 -14.7734375 44.48046875 C-13.50908749 39.66670831 -12.47965993 34.81629005 -11.5 29.9375 C-11.24416138 28.67498413 -11.24416138 28.67498413 -10.9831543 27.38696289 C-10.2111735 23.45622101 -9.53302899 19.55427381 -9.10546875 15.5703125 C-9.03150879 14.88976807 -8.95754883 14.20922363 -8.88134766 13.50805664 C-8.70083692 11.6963563 -8.55413702 9.88137506 -8.41015625 8.06640625 C-7.277436 3.6425983 -4.84889871 0 0 0 Z " fill="#FE7D2B" transform="translate(131.625,227)"/>
<path d="M0 0 C4.88697045 1.35149656 6.9368401 3.69257787 10.15234375 7.46484375 C10.69310547 8.06361328 11.23386719 8.66238281 11.79101562 9.27929688 C15.71484375 13.70910537 15.71484375 13.70910537 15.71484375 16.02734375 C16.70484375 16.35734375 17.69484375 16.68734375 18.71484375 17.02734375 C20.3984375 18.734375 20.3984375 18.734375 22.15234375 20.83984375 C24.09451709 23.14000243 25.99313535 25.29849967 28.15234375 27.40234375 C29.71484375 29.02734375 29.71484375 29.02734375 29.71484375 31.02734375 C30.27171875 31.25421875 30.82859375 31.48109375 31.40234375 31.71484375 C34.49908155 33.47245169 36.48397709 35.23876043 38.71484375 38.02734375 C39.08984375 41.77734375 39.08984375 41.77734375 38.71484375 45.02734375 C37.71484375 46.02734375 37.71484375 46.02734375 34.27734375 46.65234375 C28.34405743 46.52632705 25.13790502 42.55575478 21.19091797 38.52539062 C19.57925034 36.88973191 17.93323684 35.29411453 16.28125 33.69921875 C9.23122602 26.84089591 2.75562453 19.79947801 -3.28515625 12.02734375 C-4.02636719 11.1559375 -4.76757812 10.28453125 -5.53125 9.38671875 C-7.28515625 7.02734375 -7.28515625 7.02734375 -7.22265625 4.33984375 C-5.70025677 0.5845917 -3.92191033 0.03264372 0 0 Z " fill="#FE7E2D" transform="translate(51.28515625,81.97265625)"/>
<path d="M0 0 C1.08909668 0.00531738 2.17819336 0.01063477 3.30029297 0.01611328 C4.41388184 0.01885254 5.5274707 0.0215918 6.67480469 0.02441406 C41.17137383 0.44969414 41.17137383 0.44969414 47.05029297 6.32861328 C47.47353995 9.46064091 47.29540043 10.93430997 45.61279297 13.64111328 C41.86081588 16.11192746 38.42340691 15.79826108 34.05029297 15.32861328 C33.42264038 15.16541092 32.79498779 15.00220856 32.14831543 14.83406067 C28.72124552 14.00842435 25.21469469 13.93189444 21.70654297 13.71533203 C20.05153229 13.60100264 18.39658588 13.4857397 16.74169922 13.36962891 C14.14168771 13.18988535 11.54183359 13.01559812 8.94042969 12.85717773 C6.42350509 12.70174443 3.90911628 12.52303022 1.39404297 12.34033203 C0.22983826 12.27757332 0.22983826 12.27757332 -0.95788574 12.21354675 C-4.47666411 11.9401308 -6.62615703 11.57155686 -9.47900391 9.42944336 C-10.94970703 7.32861328 -10.94970703 7.32861328 -10.82470703 4.70361328 C-8.77279522 -0.86586164 -5.19725301 0.04728546 0 0 Z " fill="#FE7F2F" transform="translate(233.94970703125,162.67138671875)"/>
<path d="M0 0 C1 1 1 1 1.375 3.75 C0.87419425 8.09031646 -0.7830947 9.12569734 -4 12 C-8.16624458 14.93432382 -12.59308573 17.44631775 -17 20 C-18.20172852 20.70310303 -18.20172852 20.70310303 -19.42773438 21.42041016 C-22.04633861 22.9436473 -24.67714312 24.44345855 -27.3125 25.9375 C-28.14789307 26.42234863 -28.98328613 26.90719727 -29.84399414 27.40673828 C-34.98374501 30.27412985 -39.0706874 31.9012878 -45 32 C-47 30 -47 30 -47.4375 27.125 C-47 24 -47 24 -45.0390625 22.10546875 C-41.17164959 19.42611713 -37.12508682 17.31950509 -32.9375 15.1875 C-20.44379067 9.02526937 -20.44379067 9.02526937 -8.9140625 1.32421875 C-6.00259386 -0.69004221 -3.43402401 -0.25917162 0 0 Z " fill="#FE7E2D" transform="translate(85,184)"/>
</svg>
